<svg viewBox="0 0 160 160"
    xmlns="http://www.w3.org/2000/svg">
    <g transform="matrix(0.03182000294327736, 0, 0, -0.03182000294327736, -1.4871940612792969, 162.8267364501953)" fill="#000000" stroke="none">
        <path d="M2323 4953 c2 -5 55 -128 118 -275 62 -148 116 -268 119 -268 3 0 42 87 87 193 45 105 97 229 117 275 l35 82 -240 0 c-132 0 -238 -3 -236 -7z" style="fill: rgb(38, 198, 102);"/>
        <path d="M675 4440 c-189 -189 -198 -199 -174 -208 13 -5 123 -46 244 -92 121 -45 255 -95 297 -111 l78 -28 -24 62 c-13 34 -65 175 -116 312 -51 138 -96 253 -99 257 -4 4 -96 -82 -206 -192z" style="fill: rgb(38, 198, 102);"/>
        <path d="M4232 4619 c-5 -13 -46 -123 -92 -244 -45 -121 -95 -255 -111 -297 l-28 -78 62 24 c34 13 175 65 312 116 138 51 253 96 257 99 4 4 -82 96 -192 206 -189 189 -199 198 -208 174z" style="fill: rgb(38, 198, 102);"/>
        <path d="M2455 4071 c-110 -24 -203 -74 -289 -155 -70 -65 -87 -68 -172 -29 -51 24 -72 28 -154 28 -86 0 -101 -3 -162 -32 -84 -40 -147 -97 -186 -171 -59 -110 -59 -190 -1 -304 50 -98 182 -189 295 -204 l54 -6 0 -80 0 -81 -61 7 c-71 8 -166 41 -230 78 -108 64 -210 199 -245 326 -17 61 -19 64 -45 58 -50 -10 -119 -48 -169 -93 -49 -44 -120 -165 -120 -204 0 -29 -21 -66 -44 -77 -11 -6 -50 -13 -86 -16 -136 -13 -254 -96 -318 -224 -35 -72 -37 -81 -37 -171 0 -90 2 -101 38 -175 56 -118 52 -133 -45 -182 -127 -64 -205 -165 -229 -298 -41 -223 126 -441 355 -463 91 -8 107 -23 117 -106 8 -62 46 -158 69 -172 5 -3 15 6 20 20 40 105 186 270 308 349 155 101 291 140 482 140 147 0 216 -13 341 -65 214 -88 407 -289 481 -501 l23 -68 117 0 c93 0 118 3 118 14 0 7 13 45 29 84 112 272 367 476 656 527 427 74 842 -168 982 -573 18 -54 33 -105 33 -115 0 -35 25 -11 58 53 43 86 51 170 27 274 -17 70 -17 77 -1 100 14 23 68 46 106 46 34 0 144 63 189 108 103 103 143 244 107 378 -33 123 -108 212 -224 267 -61 29 -76 32 -162 32 -86 0 -101 -3 -162 -32 -37 -17 -87 -50 -112 -73 -56 -52 -112 -160 -121 -235 l-7 -55 -79 0 -79 0 0 33 c0 54 29 157 63 226 43 89 150 195 238 238 97 48 187 66 292 60 l89 -6 16 37 c11 26 16 67 17 133 0 90 -2 99 -37 171 -65 130 -182 212 -324 225 -57 5 -74 11 -96 34 -16 15 -28 38 -28 52 0 42 -67 162 -116 207 -63 58 -155 99 -240 107 -57 5 -74 11 -96 34 -16 15 -28 38 -28 52 0 42 -67 162 -116 207 -25 23 -75 56 -112 73 -61 29 -76 32 -162 32 -86 0 -101 -3 -162 -32 -37 -17 -87 -50 -112 -73 -56 -52 -112 -160 -121 -235 l-7 -55 -81 0 -80 0 7 58 c14 121 76 251 160 335 l37 37 -61 39 c-33 22 -89 49 -123 61 -69 24 -217 35 -282 21z m741 -1418 c-15 -142 -80 -276 -186 -383 -107 -106 -241 -171 -382 -186 l-68 -7 0 80 0 79 70 11 c206 32 371 196 402 401 l12 72 79 0 80 0 -7 -67z m-1829 -84 c32 -206 197 -370 403 -402 l70 -11 0 -79 0 -80 -65 7 c-211 22 -408 157 -503 346 -41 82 -71 191 -72 258 l0 32 78 0 78 0 11 -71z" style="fill: rgb(38, 198, 102);"/>
        <path d="M1460 1666 c-155 -34 -256 -89 -370 -205 -67 -67 -95 -105 -128 -171 -62 -125 -77 -192 -76 -340 1 -107 5 -137 27 -205 38 -115 90 -199 182 -290 93 -93 160 -135 282 -178 80 -28 100 -31 213 -31 148 -1 216 14 338 76 251 125 409 405 389 689 -13 177 -81 323 -212 454 -139 139 -283 203 -475 210 -67 3 -128 -1 -170 -9z m321 -178 c149 -55 254 -147 319 -282 151 -314 -3 -668 -340 -782 -81 -28 -254 -25 -334 4 -179 65 -301 191 -362 372 -26 76 -26 244 0 320 59 176 175 300 339 362 81 31 125 37 222 33 63 -2 110 -11 156 -27z" style="fill: rgb(38, 198, 102);"/>
        <path d="M1506 1350 c-63 -16 -153 -70 -197 -117 -22 -24 -55 -74 -72 -111 -29 -61 -32 -76 -32 -163 0 -90 2 -99 37 -171 45 -91 103 -147 196 -191 61 -29 76 -32 162 -32 86 0 101 3 162 32 93 44 151 100 196 191 35 72 37 81 37 172 0 91 -2 100 -37 172 -68 136 -188 217 -336 224 -42 2 -94 -1 -116 -6z" style="fill: rgb(38, 198, 102);"/>
        <path d="M3380 1666 c-155 -34 -256 -89 -370 -205 -67 -67 -95 -105 -128 -171 -62 -125 -77 -192 -76 -340 1 -107 5 -137 27 -205 38 -115 90 -199 182 -290 93 -93 160 -135 282 -178 80 -28 100 -31 213 -31 148 -1 216 14 338 76 251 125 409 405 389 689 -13 177 -81 323 -212 454 -139 139 -283 203 -475 210 -67 3 -128 -1 -170 -9z m321 -178 c149 -55 254 -147 319 -282 151 -314 -3 -668 -340 -782 -81 -28 -254 -25 -334 4 -179 65 -301 191 -362 372 -14 40 -19 84 -19 160 0 158 50 282 156 390 80 81 180 136 294 161 70 15 213 3 286 -23z" style="fill: rgb(38, 198, 102);"/>
        <path d="M3426 1350 c-63 -16 -153 -70 -197 -117 -22 -24 -55 -74 -72 -111 -29 -61 -32 -76 -32 -163 0 -90 2 -99 37 -171 45 -91 103 -147 196 -191 61 -29 76 -32 162 -32 86 0 101 3 162 32 93 44 151 100 196 191 35 72 37 81 37 172 0 91 -2 100 -37 172 -68 136 -188 217 -336 224 -42 2 -94 -1 -116 -6z" style="fill: rgb(38, 198, 102);"/>
        <path d="M2480 960 l0 -80 80 0 80 0 0 80 0 80 -80 0 -80 0 0 -80z" style="fill: rgb(38, 198, 102);"/>
    </g>
</svg>