<svg viewBox="0 0 810 160"
    xmlns="http://www.w3.org/2000/svg">
    <path d="M 188.635 131.821 L 188.635 42.421 L 226.315 42.421 Q 235.195 42.421 241.495 45.481 Q 247.795 48.541 251.215 54.121 Q 254.635 59.701 254.635 67.621 Q 254.635 73.741 251.335 79.081 Q 248.035 84.421 240.835 87.901 L 240.835 80.341 Q 247.435 82.861 251.275 86.581 Q 255.115 90.301 256.675 94.861 Q 258.235 99.421 258.235 104.461 Q 258.235 117.301 249.775 124.561 Q 241.315 131.821 226.315 131.821 Z M 204.955 117.421 L 227.995 117.421 Q 234.355 117.421 238.135 113.881 Q 241.915 110.341 241.915 104.461 Q 241.915 98.581 238.135 94.981 Q 234.355 91.381 227.995 91.381 L 204.955 91.381 Z M 204.955 77.101 L 227.155 77.101 Q 232.195 77.101 235.195 74.161 Q 238.195 71.221 238.195 66.541 Q 238.195 61.861 235.195 59.101 Q 232.195 56.341 227.155 56.341 L 204.955 56.341 Z M 270.221 131.821 L 270.221 66.541 L 284.981 66.541 L 284.981 81.061 L 283.781 78.901 Q 286.061 71.581 290.921 68.701 Q 295.781 65.821 302.621 65.821 L 306.461 65.821 L 306.461 79.741 L 300.821 79.741 Q 294.101 79.741 290.021 83.881 Q 285.941 88.021 285.941 95.461 L 285.941 131.821 Z M 334.912 133.261 Q 328.072 133.261 323.032 130.981 Q 317.992 128.701 315.232 124.441 Q 312.472 120.181 312.472 114.541 Q 312.472 109.141 314.872 104.881 Q 317.272 100.621 322.312 97.741 Q 327.352 94.861 335.032 93.661 L 356.392 90.181 L 356.392 102.181 L 338.032 105.301 Q 333.352 106.141 331.072 108.301 Q 328.792 110.461 328.792 113.941 Q 328.792 117.301 331.372 119.281 Q 333.952 121.261 337.792 121.261 Q 342.712 121.261 346.492 119.161 Q 350.272 117.061 352.372 113.341 Q 354.472 109.621 354.472 105.181 L 354.472 88.381 Q 354.472 84.181 351.172 81.361 Q 347.872 78.541 342.472 78.541 Q 337.432 78.541 333.532 81.241 Q 329.632 83.941 327.832 88.381 L 314.992 82.141 Q 316.912 76.981 321.052 73.201 Q 325.192 69.421 330.832 67.261 Q 336.472 65.101 343.072 65.101 Q 351.112 65.101 357.232 68.041 Q 363.352 70.981 366.772 76.201 Q 370.192 81.421 370.192 88.381 L 370.192 131.821 L 355.312 131.821 L 355.312 120.661 L 358.672 120.421 Q 356.152 124.621 352.672 127.441 Q 349.192 130.261 344.752 131.761 Q 340.312 133.261 334.912 133.261 Z M 384.706 131.821 L 384.706 66.541 L 400.426 66.541 L 400.426 131.821 Z M 384.706 59.221 L 384.706 42.421 L 400.426 42.421 L 400.426 59.221 Z M 414.94 131.821 L 414.94 66.541 L 429.7 66.541 L 429.7 79.381 L 428.5 77.101 Q 430.78 71.221 436 68.161 Q 441.22 65.101 448.18 65.101 Q 455.38 65.101 460.96 68.221 Q 466.54 71.341 469.66 76.921 Q 472.78 82.501 472.78 89.821 L 472.78 131.821 L 457.06 131.821 L 457.06 93.541 Q 457.06 89.221 455.38 86.101 Q 453.7 82.981 450.76 81.241 Q 447.82 79.501 443.86 79.501 Q 440.02 79.501 437.02 81.241 Q 434.02 82.981 432.34 86.101 Q 430.66 89.221 430.66 93.541 L 430.66 131.821 Z M 493.672 131.821 L 493.672 80.581 L 482.152 80.581 L 482.152 66.541 L 493.672 66.541 L 493.672 64.381 Q 493.672 56.941 496.732 51.721 Q 499.792 46.501 505.312 43.741 Q 510.832 40.981 518.392 40.981 Q 519.832 40.981 521.572 41.161 Q 523.312 41.341 524.512 41.581 L 524.512 55.141 Q 523.312 54.901 522.292 54.841 Q 521.272 54.781 520.432 54.781 Q 515.152 54.781 512.272 57.121 Q 509.392 59.461 509.392 64.381 L 509.392 66.541 L 523.912 66.541 L 523.912 80.581 L 509.392 80.581 L 509.392 131.821 Z M 564.954 133.261 Q 555.354 133.261 547.494 128.821 Q 539.634 124.381 535.014 116.701 Q 530.394 109.021 530.394 99.181 Q 530.394 89.341 535.014 81.661 Q 539.634 73.981 547.434 69.541 Q 555.234 65.101 564.954 65.101 Q 574.554 65.101 582.354 69.541 Q 590.154 73.981 594.774 81.601 Q 599.394 89.221 599.394 99.181 Q 599.394 109.021 594.714 116.701 Q 590.034 124.381 582.234 128.821 Q 574.434 133.261 564.954 133.261 Z M 564.954 118.861 Q 570.234 118.861 574.254 116.341 Q 578.274 113.821 580.614 109.321 Q 582.954 104.821 582.954 99.181 Q 582.954 93.421 580.614 89.041 Q 578.274 84.661 574.254 82.081 Q 570.234 79.501 564.954 79.501 Q 559.554 79.501 555.474 82.081 Q 551.394 84.661 549.054 89.041 Q 546.714 93.421 546.714 99.181 Q 546.714 104.821 549.054 109.321 Q 551.394 113.821 555.474 116.341 Q 559.554 118.861 564.954 118.861 Z M 611.268 131.821 L 611.268 66.541 L 626.028 66.541 L 626.028 81.061 L 624.828 78.901 Q 627.108 71.581 631.968 68.701 Q 636.828 65.821 643.668 65.821 L 647.508 65.821 L 647.508 79.741 L 641.868 79.741 Q 635.148 79.741 631.068 83.881 Q 626.988 88.021 626.988 95.461 L 626.988 131.821 Z M 687.823 158.221 Q 680.503 158.221 674.263 155.821 Q 668.023 153.421 663.523 149.161 Q 659.023 144.901 656.983 139.141 L 671.623 133.621 Q 673.063 138.181 677.323 141.001 Q 681.583 143.821 687.823 143.821 Q 692.623 143.821 696.283 142.021 Q 699.943 140.221 701.983 136.801 Q 704.023 133.381 704.023 128.581 L 704.023 113.701 L 707.023 117.301 Q 703.663 123.181 698.023 126.181 Q 692.383 129.181 685.183 129.181 Q 676.063 129.181 668.863 124.981 Q 661.663 120.781 657.583 113.461 Q 653.503 106.141 653.503 97.021 Q 653.503 87.781 657.583 80.581 Q 661.663 73.381 668.743 69.241 Q 675.823 65.101 684.823 65.101 Q 692.143 65.101 697.723 68.161 Q 703.303 71.221 707.023 76.981 L 704.863 80.941 L 704.863 66.541 L 719.743 66.541 L 719.743 128.581 Q 719.743 137.101 715.603 143.821 Q 711.463 150.541 704.323 154.381 Q 697.183 158.221 687.823 158.221 Z M 687.103 114.661 Q 692.143 114.661 695.923 112.441 Q 699.703 110.221 701.863 106.261 Q 704.023 102.301 704.023 97.141 Q 704.023 92.101 701.803 88.081 Q 699.583 84.061 695.803 81.781 Q 692.023 79.501 687.103 79.501 Q 682.183 79.501 678.223 81.781 Q 674.263 84.061 672.043 88.081 Q 669.823 92.101 669.823 97.141 Q 669.823 102.181 672.043 106.141 Q 674.263 110.101 678.163 112.381 Q 682.063 114.661 687.103 114.661 Z M 765.353 133.261 Q 755.273 133.261 747.713 128.701 Q 740.153 124.141 735.953 116.341 Q 731.753 108.541 731.753 99.061 Q 731.753 89.221 736.013 81.601 Q 740.273 73.981 747.653 69.541 Q 755.033 65.101 764.153 65.101 Q 771.833 65.101 777.653 67.621 Q 783.473 70.141 787.553 74.581 Q 791.633 79.021 793.793 84.721 Q 795.953 90.421 795.953 97.021 Q 795.953 98.701 795.773 100.501 Q 795.593 102.301 795.113 103.621 L 744.713 103.621 L 744.713 91.621 L 786.233 91.621 L 778.793 97.261 Q 779.873 91.741 778.253 87.421 Q 776.633 83.101 772.973 80.581 Q 769.313 78.061 764.153 78.061 Q 759.233 78.061 755.393 80.521 Q 751.553 82.981 749.573 87.721 Q 747.593 92.461 748.073 99.181 Q 747.593 105.181 749.693 109.801 Q 751.793 114.421 755.933 116.941 Q 760.073 119.461 765.473 119.461 Q 770.873 119.461 774.653 117.181 Q 778.433 114.901 780.593 111.061 L 793.313 117.301 Q 791.393 121.981 787.313 125.581 Q 783.233 129.181 777.653 131.221 Q 772.073 133.261 765.353 133.261 Z" style="fill: rgb(255, 255, 255);"/>
    <g transform="matrix(0.03182000294327736, 0, 0, -0.03182000294327736, -4.120967864990234, 162.8267364501953)" fill="#000000" stroke="none">
        <path d="M2323 4953 c2 -5 55 -128 118 -275 62 -148 116 -268 119 -268 3 0 42 87 87 193 45 105 97 229 117 275 l35 82 -240 0 c-132 0 -238 -3 -236 -7z" style="fill: rgb(38, 198, 102);"/>
        <path d="M675 4440 c-189 -189 -198 -199 -174 -208 13 -5 123 -46 244 -92 121 -45 255 -95 297 -111 l78 -28 -24 62 c-13 34 -65 175 -116 312 -51 138 -96 253 -99 257 -4 4 -96 -82 -206 -192z" style="fill: rgb(38, 198, 102);"/>
        <path d="M4232 4619 c-5 -13 -46 -123 -92 -244 -45 -121 -95 -255 -111 -297 l-28 -78 62 24 c34 13 175 65 312 116 138 51 253 96 257 99 4 4 -82 96 -192 206 -189 189 -199 198 -208 174z" style="fill: rgb(38, 198, 102);"/>
        <path d="M2455 4071 c-110 -24 -203 -74 -289 -155 -70 -65 -87 -68 -172 -29 -51 24 -72 28 -154 28 -86 0 -101 -3 -162 -32 -84 -40 -147 -97 -186 -171 -59 -110 -59 -190 -1 -304 50 -98 182 -189 295 -204 l54 -6 0 -80 0 -81 -61 7 c-71 8 -166 41 -230 78 -108 64 -210 199 -245 326 -17 61 -19 64 -45 58 -50 -10 -119 -48 -169 -93 -49 -44 -120 -165 -120 -204 0 -29 -21 -66 -44 -77 -11 -6 -50 -13 -86 -16 -136 -13 -254 -96 -318 -224 -35 -72 -37 -81 -37 -171 0 -90 2 -101 38 -175 56 -118 52 -133 -45 -182 -127 -64 -205 -165 -229 -298 -41 -223 126 -441 355 -463 91 -8 107 -23 117 -106 8 -62 46 -158 69 -172 5 -3 15 6 20 20 40 105 186 270 308 349 155 101 291 140 482 140 147 0 216 -13 341 -65 214 -88 407 -289 481 -501 l23 -68 117 0 c93 0 118 3 118 14 0 7 13 45 29 84 112 272 367 476 656 527 427 74 842 -168 982 -573 18 -54 33 -105 33 -115 0 -35 25 -11 58 53 43 86 51 170 27 274 -17 70 -17 77 -1 100 14 23 68 46 106 46 34 0 144 63 189 108 103 103 143 244 107 378 -33 123 -108 212 -224 267 -61 29 -76 32 -162 32 -86 0 -101 -3 -162 -32 -37 -17 -87 -50 -112 -73 -56 -52 -112 -160 -121 -235 l-7 -55 -79 0 -79 0 0 33 c0 54 29 157 63 226 43 89 150 195 238 238 97 48 187 66 292 60 l89 -6 16 37 c11 26 16 67 17 133 0 90 -2 99 -37 171 -65 130 -182 212 -324 225 -57 5 -74 11 -96 34 -16 15 -28 38 -28 52 0 42 -67 162 -116 207 -63 58 -155 99 -240 107 -57 5 -74 11 -96 34 -16 15 -28 38 -28 52 0 42 -67 162 -116 207 -25 23 -75 56 -112 73 -61 29 -76 32 -162 32 -86 0 -101 -3 -162 -32 -37 -17 -87 -50 -112 -73 -56 -52 -112 -160 -121 -235 l-7 -55 -81 0 -80 0 7 58 c14 121 76 251 160 335 l37 37 -61 39 c-33 22 -89 49 -123 61 -69 24 -217 35 -282 21z m741 -1418 c-15 -142 -80 -276 -186 -383 -107 -106 -241 -171 -382 -186 l-68 -7 0 80 0 79 70 11 c206 32 371 196 402 401 l12 72 79 0 80 0 -7 -67z m-1829 -84 c32 -206 197 -370 403 -402 l70 -11 0 -79 0 -80 -65 7 c-211 22 -408 157 -503 346 -41 82 -71 191 -72 258 l0 32 78 0 78 0 11 -71z" style="fill: rgb(38, 198, 102);"/>
        <path d="M1460 1666 c-155 -34 -256 -89 -370 -205 -67 -67 -95 -105 -128 -171 -62 -125 -77 -192 -76 -340 1 -107 5 -137 27 -205 38 -115 90 -199 182 -290 93 -93 160 -135 282 -178 80 -28 100 -31 213 -31 148 -1 216 14 338 76 251 125 409 405 389 689 -13 177 -81 323 -212 454 -139 139 -283 203 -475 210 -67 3 -128 -1 -170 -9z m321 -178 c149 -55 254 -147 319 -282 151 -314 -3 -668 -340 -782 -81 -28 -254 -25 -334 4 -179 65 -301 191 -362 372 -26 76 -26 244 0 320 59 176 175 300 339 362 81 31 125 37 222 33 63 -2 110 -11 156 -27z" style="fill: rgb(38, 198, 102);"/>
        <path d="M1506 1350 c-63 -16 -153 -70 -197 -117 -22 -24 -55 -74 -72 -111 -29 -61 -32 -76 -32 -163 0 -90 2 -99 37 -171 45 -91 103 -147 196 -191 61 -29 76 -32 162 -32 86 0 101 3 162 32 93 44 151 100 196 191 35 72 37 81 37 172 0 91 -2 100 -37 172 -68 136 -188 217 -336 224 -42 2 -94 -1 -116 -6z" style="fill: rgb(38, 198, 102);"/>
        <path d="M3380 1666 c-155 -34 -256 -89 -370 -205 -67 -67 -95 -105 -128 -171 -62 -125 -77 -192 -76 -340 1 -107 5 -137 27 -205 38 -115 90 -199 182 -290 93 -93 160 -135 282 -178 80 -28 100 -31 213 -31 148 -1 216 14 338 76 251 125 409 405 389 689 -13 177 -81 323 -212 454 -139 139 -283 203 -475 210 -67 3 -128 -1 -170 -9z m321 -178 c149 -55 254 -147 319 -282 151 -314 -3 -668 -340 -782 -81 -28 -254 -25 -334 4 -179 65 -301 191 -362 372 -14 40 -19 84 -19 160 0 158 50 282 156 390 80 81 180 136 294 161 70 15 213 3 286 -23z" style="fill: rgb(38, 198, 102);"/>
        <path d="M3426 1350 c-63 -16 -153 -70 -197 -117 -22 -24 -55 -74 -72 -111 -29 -61 -32 -76 -32 -163 0 -90 2 -99 37 -171 45 -91 103 -147 196 -191 61 -29 76 -32 162 -32 86 0 101 3 162 32 93 44 151 100 196 191 35 72 37 81 37 172 0 91 -2 100 -37 172 -68 136 -188 217 -336 224 -42 2 -94 -1 -116 -6z" style="fill: rgb(38, 198, 102);"/>
        <path d="M2480 960 l0 -80 80 0 80 0 0 80 0 80 -80 0 -80 0 0 -80z" style="fill: rgb(38, 198, 102);"/>
    </g>
</svg>